<svg xmlns="http://www.w3.org/2000/svg" xmlns:xlink="http://www.w3.org/1999/xlink" version="1.1" x="0px" y="0px" viewBox="0 0 100 125" style="enable-background:new 0 0 100 100;" xml:space="preserve"><style type="text/css">
	<!-- .st0{fill-rule:evenodd;clip-rule:evenodd;} -->
</style><path d="M28.98,17.28l-12.02,6.45v-12.8c0-1.26,1.03-2.29,2.29-2.29h7.44c1.26,0,2.29,1.03,2.29,2.29V17.28z M50,26.05l37.28,20  v42.08c0,1.78-1.45,3.23-3.23,3.23h-30.4V74.52h-7.3v16.83h-30.4c-1.78,0-3.23-1.45-3.23-3.23V46.05L50,26.05z M73.24,47.83H26.76  c-1.15,0-2.09,0.94-2.09,2.09v19.31c0,1.15,0.94,2.09,2.09,2.09h46.48c1.16,0,2.1-0.94,2.1-2.09V49.93  C75.34,48.78,74.39,47.83,73.24,47.83z M52.02,41.2h-4.03c-0.89,0-1.63,0.73-1.63,1.63v1.81h7.3v-1.81  C53.65,41.93,52.91,41.2,52.02,41.2z M96.53,34.59L52.67,11.06c-1.75-0.94-3.79-0.86-5.4,0.03l-43.8,23.5  c-2.75,1.47-3.77,4.89-2.3,7.63c1.47,2.75,4.89,3.77,7.64,2.3L50,22.42l41.19,22.1c2.74,1.47,6.16,0.45,7.63-2.3  C100.3,39.49,99.27,36.07,96.53,34.59z M58.72,61.46H41.27c-0.85,0-1.55,0.7-1.55,1.55c0,0.86,0.69,1.55,1.55,1.55h17.45  c0.86,0,1.55-0.69,1.55-1.55C60.28,62.16,59.58,61.46,58.72,61.46z M35.51,57.7h28.97c0.85,0,1.55-0.7,1.55-1.55  c0-0.85-0.69-1.55-1.55-1.55H35.51c-0.85,0-1.55,0.7-1.55,1.55C33.97,57,34.66,57.7,35.51,57.7z" fill="#000"/></svg>