<svg xmlns="http://www.w3.org/2000/svg" xmlns:xlink="http://www.w3.org/1999/xlink" version="1.1" x="0px" y="0px" viewBox="0 0 100 125" enable-background="new 0 0 100 100" xml:space="preserve"><g><g><g><path d="M69.5,82.4c-12.2,0-24.3,0-36.5,0c-7.4,0-13.3-3-15.2-10.8c-1.1-4.6-0.1-10.5-0.1-15.2c0-7.4,0-14.8,0-22.2     c0-6.5,1.3-12.9,8.2-15.6c4.7-1.8,11.1-0.9,16-0.9c7.6,0,15.2,0,22.8,0c6.9,0,14,0.7,16.9,8.2c2,5.2,0.9,12.4,0.9,17.8     c0,7.8,0,15.6,0,23.3C82.4,75.1,78.3,82.1,69.5,82.4c-9.6,0.3-9.7,15.3,0,15c12.7-0.4,23.1-8.3,26.9-20.5c1.7-5.5,1-12.1,1-17.8     c0-7.7,0-15.3,0-23c0-7.4-0.4-14.2-4.5-20.7C83.1-0.1,64.1,2.6,48.5,2.6c-5.9,0-11.8,0-17.7,0C20,2.6,9.8,8.9,5.3,18.8     c-4.4,9.6-2.6,22.4-2.6,32.7c0,11-1.6,23.4,4.5,33.2c5.1,8.1,14.1,12.4,23.4,12.7c3.5,0.1,6.9,0,10.4,0c9.5,0,19,0,28.5,0     C79.1,97.4,79.1,82.4,69.5,82.4z" fill="#000"/></g></g><g><polygon points="28.1,50.8 28.1,49.2 49.2,49.2 49.2,28.1 50.8,28.1 50.8,49.2 71.9,49.2 71.9,50.8 50.8,50.8 50.8,71.9     49.2,71.9 49.2,50.8   " /><g><path d="M35.6,50.8c0-0.5,0-1,0-1.5c-2.5,2.5-5,5-7.5,7.5c7,0,14.1,0,21.1,0c4.1,0,7.5-3.4,7.5-7.5c0-7,0-14.1,0-21.1     c-2.5,2.5-5,5-7.5,7.5c0.5,0,1,0,1.5,0c-2.5-2.5-5-5-7.5-7.5c0,7,0,14.1,0,21.1c0,4.1,3.4,7.5,7.5,7.5c7,0,14.1,0,21.1,0     c-2.5-2.5-5-5-7.5-7.5c0,0.5,0,1,0,1.5c2.5-2.5,5-5,7.5-7.5c-7,0-14.1,0-21.1,0c-4.1,0-7.5,3.4-7.5,7.5c0,7,0,14.1,0,21.1     c2.5-2.5,5-5,7.5-7.5c-0.5,0-1,0-1.5,0c2.5,2.5,5,5,7.5,7.5c0-7,0-14.1,0-21.1c0-4.1-3.4-7.5-7.5-7.5c-7,0-14.1,0-21.1,0     c-9.7,0-9.7,15,0,15c7,0,14.1,0,21.1,0c-2.5-2.5-5-5-7.5-7.5c0,7,0,14.1,0,21.1c0,4.1,3.4,7.5,7.5,7.5c0.5,0,1,0,1.5,0     c4.1,0,7.5-3.4,7.5-7.5c0-7,0-14.1,0-21.1c-2.5,2.5-5,5-7.5,7.5c7,0,14.1,0,21.1,0c4.1,0,7.5-3.4,7.5-7.5c0-0.5,0-1,0-1.5     c0-4.1-3.4-7.5-7.5-7.5c-7,0-14.1,0-21.1,0c2.5,2.5,5,5,7.5,7.5c0-7,0-14.1,0-21.1c0-4.1-3.4-7.5-7.5-7.5c-0.5,0-1,0-1.5,0     c-4.1,0-7.5,3.4-7.5,7.5c0,7,0,14.1,0,21.1c2.5-2.5,5-5,7.5-7.5c-7,0-14.1,0-21.1,0c-4.1,0-7.5,3.4-7.5,7.5c0,0.5,0,1,0,1.5     C20.6,60.4,35.6,60.4,35.6,50.8z" fill="#000"/></g></g></g></svg>