<svg xmlns="http://www.w3.org/2000/svg" version="1.1" viewBox="-5.0 -10.0 110.0 135.0">
 <g>
  <path d="m12.895 27.57c1.5703 0 2.8555 1.2148 2.9648 2.75l1.75 21.605 10.75 11.355c0.53516 0.64453 1.4648 0.75 2.1055 0.28516 0.46484-0.32031 0.60547-0.78516 0.64453-1.0352 0.035156-0.25 0-0.71484-0.28516-1.1797l-7.0703-8.8555c-1.0352-1.2852-0.82031-3.1445 0.42969-4.1797 1.2852-1.0352 3.1445-0.85547 4.2148 0.39453l11.18 13.25c2.1797 2.5352 3.1797 5.9297 2.8203 9.25l-0.25 21.32-19.43-0.25 1.1445-13.965-15-18c-1.1055-1.4648-1.6055-3.2852-1.4297-5.1055l2.4648-24.895c0.14453-1.5352 1.4297-2.75 3-2.75z" fill="#000"/>
  <path d="m87.105 27.57c-1.5703 0-2.8555 1.2148-2.9648 2.75l-1.75 21.605-10.75 11.355c-0.53516 0.64453-1.4648 0.75-2.1055 0.28516-0.46484-0.32031-0.60547-0.78516-0.64453-1.0352-0.035156-0.25 0-0.71484 0.28516-1.1797l7.0703-8.8555c1.0352-1.2852 0.82031-3.1445-0.42969-4.1797-1.2852-1.0352-3.1445-0.85547-4.2148 0.39453l-11.18 13.25c-2.1797 2.5352-3.1797 5.9297-2.8203 9.25l0.25 21.32 19.43-0.25-1.1445-13.965 15-18c1.1055-1.4648 1.6055-3.2852 1.4297-5.1055l-2.4648-24.895c-0.14453-1.5352-1.4297-2.75-3-2.75z" fill="#000"/>
  <path d="m61.25 7.5c-4.25 0-8 2.5-10.355 6.3203-0.60547 1-1.9648 1-2.5703 0-2.3555-3.8203-6.1055-6.3203-10.355-6.3203-7.1055 0-14.57 5.1797-15.18 15.68-0.75 13.43 14.285 26.715 22.18 32.715 2.75 2.1055 6.5352 2.1055 9.2852 0 7.8945-6 22.93-19.285 22.18-32.715-0.60547-10.5-8.0703-15.68-15.18-15.68zm-1.0352 27.215h-7.9648v7.9648h-5.2852v-7.9648h-7.9648v-5.3203h7.9648v-7.9297h5.2852v7.9297h7.9648z" fill="#000"/>
 </g>
]</svg>