<svg xmlns="http://www.w3.org/2000/svg" version="1.1" viewBox="-5.0 -10.0 110.0 135.0">
 <path d="m53.262 82.957c0 3.9141-2.3594 7.4453-5.9766 8.9414-3.6133 1.5-7.7773 0.67187-10.543-2.0977-2.7695-2.7656-3.5977-6.9297-2.0977-10.547 1.4961-3.6133 5.0234-5.9727 8.9375-5.9727 5.3438 0.003906 9.6719 4.3359 9.6797 9.6758zm16.969-9.6758c-3.918-0.003906-7.4492 2.3516-8.9492 5.9648-1.5 3.6172-0.67578 7.7812 2.0898 10.551 2.7695 2.7695 6.9297 3.6016 10.547 2.1016 3.6172-1.4961 5.9766-5.0234 5.9766-8.9414-0.003906-5.3359-4.3281-9.6641-9.6641-9.6758zm18.906-36.031c-1.0859-1.2305-2.6445-1.9336-4.2812-1.9375h-59.98l-1.582-9.043c-0.48047-2.8125-2.6484-5.0391-5.4492-5.5938l-5.918-1.1953c-1.1133-0.19922-2.1797 0.53125-2.4023 1.6406-0.22266 1.1055 0.47656 2.1914 1.582 2.4414l5.9062 1.1992c1.1172 0.21484 1.9844 1.1055 2.1758 2.2266l7.0938 40.543c0.53125 3.418 2.5508 6.4297 5.5117 8.2188 2.6875-4.3984 7.6016-6.9375 12.742-6.582 5.1445 0.35938 9.6602 3.5508 11.715 8.2812h1.2695c2.0391-4.707 6.5156-7.8984 11.633-8.2891 5.1133-0.39062 10.023 2.082 12.754 6.4219 2.9414-1.8711 4.9023-4.957 5.3555-8.4141l3.2383-25.418c0.21484-1.625-0.28125-3.2656-1.3633-4.5zm-42.637 26.395c-0.19531 0.0625-0.39844 0.09375-0.60547 0.09375-0.91406 0-1.7227-0.60156-1.9883-1.4766l-4.4062-14.582v-0.003907c-0.33203-1.1016 0.28906-2.2656 1.3906-2.5977s2.2656 0.28906 2.5977 1.3906l4.4062 14.582c0.33203 1.1016-0.29297 2.2656-1.3945 2.5938zm12.5-5.293v0.003907c0 1.1484-0.93359 2.082-2.082 2.082-1.1523 0-2.0859-0.93359-2.0859-2.082v-14.605c0-1.1523 0.93359-2.082 2.0859-2.082 1.1484 0 2.082 0.92969 2.082 2.082zm15.312-10.652-4.4062 14.582c-0.26562 0.875-1.0742 1.4766-1.9883 1.4805-0.20703-0.003907-0.41016-0.035157-0.60547-0.09375-1.0977-0.33594-1.7148-1.4961-1.3867-2.5938l4.3945-14.582 0.003907-0.003907c0.33203-1.1016 1.4961-1.7227 2.5977-1.3906 1.1016 0.33594 1.7227 1.5 1.3906 2.6016zm-18.332-20.75v4.168h13.543l-0.003907-16.816c0-1.8359-0.72656-3.5977-2.0273-4.8984-1.3008-1.2969-3.0625-2.0273-4.8984-2.0273h-13.637c-3.8242 0-6.9258 3.1016-6.9258 6.9258v2.2305h3.5625c5.7422 0.015625 10.387 4.6758 10.387 10.418zm26.52 4.168v-9.418c0-3.4531-2.7969-6.25-6.25-6.25h-2.5625v15.695zm-30.688 0v-4.168c0-3.4531-2.7969-6.25-6.25-6.25h-9.957c-3.4531 0-6.25 2.7969-6.25 6.25v4.168z" fill="#000"/>
</svg>